<?xml version="1.0" encoding="iso-8859-1"?>
<!-- Generator: Adobe Illustrator 18.0.0, SVG Export Plug-In . SVG Version: 6.00 Build 0)  -->
<!DOCTYPE svg PUBLIC "-//W3C//DTD SVG 1.1//EN" "http://www.w3.org/Graphics/SVG/1.1/DTD/svg11.dtd">
<svg xmlns="http://www.w3.org/2000/svg" xmlns:xlink="http://www.w3.org/1999/xlink" version="1.1" id="Capa_1" x="0px" y="0px" viewBox="0 0 214.842 214.842" style="enable-background:new 0 0 214.842 214.842;" xml:space="preserve" width="512px" height="512px">
<g>
	<path d="M177.204,179.81h-73.027c-2.598-9.158-9.824-16.384-18.984-18.982v-133.3C85.193,12.349,72.845,0,57.667,0   C42.487,0,30.138,12.349,30.138,27.528c0,4.142,3.358,7.5,7.5,7.5s7.5-3.358,7.5-7.5C45.138,20.62,50.758,15,57.667,15   c6.907,0,12.526,5.62,12.526,12.528v133.3c-11.543,3.275-20.026,13.902-20.026,26.482c0,15.181,12.348,27.532,27.526,27.532   c12.58,0,23.21-8.486,26.484-20.032h73.026c4.142,0,7.5-3.358,7.5-7.5C184.704,183.167,181.346,179.81,177.204,179.81z    M77.693,199.842c-6.907,0-12.526-5.622-12.526-12.532c0-6.908,5.619-12.528,12.526-12.528c6.887,0,12.491,5.584,12.528,12.461   c0,0.022-0.003,0.044-0.003,0.067c0,0.023,0.003,0.045,0.003,0.067C90.184,194.256,84.58,199.842,77.693,199.842z" fill="#FFFFFF"/>
	<path d="M177.204,80.307h-70.358c-4.142,0-7.5,3.358-7.5,7.5v70.355c0,4.142,3.358,7.5,7.5,7.5h70.358c4.142,0,7.5-3.358,7.5-7.5   V87.807C184.704,83.665,181.346,80.307,177.204,80.307z M169.704,150.661h-55.358V95.307h55.358V150.661z" fill="#FFFFFF"/>
</g>
<g>
</g>
<g>
</g>
<g>
</g>
<g>
</g>
<g>
</g>
<g>
</g>
<g>
</g>
<g>
</g>
<g>
</g>
<g>
</g>
<g>
</g>
<g>
</g>
<g>
</g>
<g>
</g>
<g>
</g>
</svg>
