<?xml version="1.0" encoding="iso-8859-1"?>
<!-- Generator: Adobe Illustrator 18.0.0, SVG Export Plug-In . SVG Version: 6.00 Build 0)  -->
<!DOCTYPE svg PUBLIC "-//W3C//DTD SVG 1.1//EN" "http://www.w3.org/Graphics/SVG/1.1/DTD/svg11.dtd">
<svg xmlns="http://www.w3.org/2000/svg" xmlns:xlink="http://www.w3.org/1999/xlink" version="1.1" id="Capa_1" x="0px" y="0px" viewBox="0 0 210.976 210.976" style="enable-background:new 0 0 210.976 210.976;" xml:space="preserve" width="512px" height="512px">
<g>
	<g>
		<g>
			<path d="M88.535,210.975c-1.92,0-3.838-0.732-5.303-2.196L2.197,127.753c-2.928-2.928-2.929-7.675-0.003-10.605l15.848-15.86     c1.796-1.796,4.38-2.563,6.862-2.035l39.67,8.418l15.69-15.679L15.097,43.607c-1.751-1.3-2.85-3.298-3.009-5.473     c-0.16-2.175,0.635-4.312,2.178-5.853l11.248-11.243c1.892-1.89,4.649-2.631,7.232-1.943l95.098,25.321l36.389-36.391     c5.169-5.174,12.045-8.024,19.358-8.024c7.313,0,14.19,2.851,19.365,8.027c5.173,5.176,8.022,12.052,8.021,19.363     c-0.001,7.313-2.853,14.188-8.029,19.36l-36.386,36.385l25.321,95.085c0.688,2.585-0.052,5.341-1.943,7.233l-11.248,11.251     c-1.542,1.542-3.682,2.335-5.854,2.177c-2.175-0.16-4.172-1.258-5.473-3.009l-48.378-65.162l-15.691,15.691l8.427,39.668     c0.528,2.484-0.238,5.067-2.034,6.863l-15.851,15.846C92.374,210.243,90.454,210.975,88.535,210.975z M18.105,122.447     l70.431,70.422l7.667-7.665l-8.427-39.668c-0.527-2.484,0.237-5.066,2.033-6.862l24.716-24.715     c1.542-1.542,3.686-2.333,5.853-2.177c2.175,0.16,4.172,1.258,5.472,3.009l48.377,65.161l2.047-2.048l-25.321-95.086     c-0.688-2.586,0.053-5.342,1.944-7.233l39.445-39.444c2.343-2.341,3.633-5.448,3.633-8.752c0-3.305-1.289-6.415-3.63-8.757     c-2.34-2.342-5.45-3.631-8.756-3.631c-3.304,0-6.411,1.289-8.749,3.628l-39.447,39.449c-1.892,1.892-4.648,2.634-7.233,1.944     L33.061,34.701l-2.044,2.043L96.185,85.13c1.751,1.3,2.85,3.298,3.009,5.473c0.159,2.175-0.636,4.312-2.178,5.854l-24.716,24.7     c-1.796,1.794-4.377,2.557-6.858,2.031l-39.667-8.417L18.105,122.447z" fill="#FFFFFF"/>
		</g>
	</g>
</g>
<g>
</g>
<g>
</g>
<g>
</g>
<g>
</g>
<g>
</g>
<g>
</g>
<g>
</g>
<g>
</g>
<g>
</g>
<g>
</g>
<g>
</g>
<g>
</g>
<g>
</g>
<g>
</g>
<g>
</g>
</svg>
